<svg id="Layer_1" data-name="Layer 1" xmlns="http://www.w3.org/2000/svg" viewBox="0 0 536.65 170.3"><defs><style>.cls-1{fill:#fff;}</style></defs><path class="cls-1" d="M184.91,120.94c-7.26,6.25-14.66,5.83-22.36,4a4.68,4.68,0,0,0-4,1.67c-7.25,11.81-18.74,16.55-31.61,18.46-15.15,2.24-30,2-42.46-9C75.37,128.1,69.24,118.3,71,105.71,73.7,87,89.33,76.86,108.56,80.59c.64.12,1.27.3,2.36.56l5.65-10.5c-2.59-1.6-5.07-2.92-7.34-4.55-8.78-6.28-11.09-15.61-6.71-26.51,3.44-8.54,13.9-15,22.7-14.05,5.71.62,9.17,3.86,8.89,10-.35,7.72-1.67,15.39-2.65,23.08a57.71,57.71,0,0,1-1.46,5.8c2.43-1.39,4.07-2,5.34-3.11,2.53-2.14,4.91-4.47,7.27-6.8,4.16-4.11,8-8.11,6.12-15-.77-2.8.29-6.24,1-9.28,1-4.39,5.72-7.23,10.41-6.73,3.12.34,6.21,4.87,6.4,9,.27,5.81-2.77,10.19-6.39,14.08a7,7,0,0,0-2,7.06c1.19,5.49,2.08,11,3.17,16.55,1.55,7.77,4,15.46,4.55,23.3S165.17,109,164.77,116c5.51-5.68,10.41-12.73,9.64-22.37a87.61,87.61,0,0,1-.58-11.88c.09-1.51,1.69-3.81,3-4.13s3.68,1.31,4.23,2.64c.82,2,.56,4.43.53,6.68-.11,6.74-.39,13.47-.46,20.2,0,1,.74,2,1.14,3l1.61-.11c0-2.24.07-4.49,0-6.73-1-26.15-1.42-52.27,4.37-78,.29-1.29.59-2.58.95-3.85C192.3,10.23,197,8.41,207,16.68a17.8,17.8,0,0,1,6.15,14.68c-.43,11.71-.73,23.53-2.57,35.06-2,12.48-5.7,24.7-8.78,37.58,9.26,8.72,15.78,8.17,25.35-2.78-1.45,5.87-5.53,9.54-11.24,12.21a60,60,0,0,1,16.62,33.46,39.14,39.14,0,0,1-1.11,17.46c-4.37,13.58-16.71,13-25.66,6.32-8.6-6.38-13-15.68-15.34-26C188.73,137.11,186.92,129.57,184.91,120.94Zm-33.62-1.12L115.77,93c-4.51,5.69-8.31,10.67-12.3,15.48S95.08,118.21,90.89,123C105.45,140.31,140.62,138.39,151.29,119.82ZM120,84.5l34.83,30.6c4.43-21.19-.83-39.8-3.42-58.83a8.73,8.73,0,0,0-1.65.58c-7.05,6-13.48,12.83-22.92,15.3-.73.2-1.32,1.39-1.75,2.23C123.35,77.74,121.68,81.15,120,84.5Zm76.38,26c-3,1.68-4,4.35-3.24,8.11,1,5.35.9,11,2.52,16.13a108.64,108.64,0,0,0,8.54,19.83,10,10,0,0,0,11.09,5.09c4.93-1.06,7.59-4.61,8.42-9.38a20.63,20.63,0,0,0,.21-7.34C220.84,127.17,213.38,114.9,196.39,110.48Zm-5.81-4.09c5.69-5.22,6.22-10.8,7.34-16.35,3.72-18.44,5.53-37,4.41-55.79-.25-4.17-.41-8.49-5.12-12.85C187.08,49.51,188.84,77.31,190.58,106.39ZM120.92,63.26c1.85-9.57,4-18.51,5.2-27.58.7-5.33-4.71-7.89-9.6-4.66-6.33,4.19-10,10-9.28,18C107.92,56.46,112.56,60.35,120.92,63.26Zm-13.6,26.09c-9.68-.29-18.85,4.32-21.58,10.54-2.66,6-1.92,12,1.94,19.22Zm62.57,27.8.21,1.12,9.37-1.93L176,111.86Z" transform="translate(-4.9 -4.94)"/><path class="cls-1" d="M389.58,35.22c3.05,2.89,7.34,5.19,7.19,7.15-.43,5.56-5.65,6-10.5,6-3.52,17.46-6.4,34.68-1.93,52.22,1.17,4.62,4.45,7.61,8.68,7.6,2.64,0,6.55-2.56,7.67-5,2.86-6.19,5.89-12.87,6.33-19.51,1.41-21.3,1.77-42.67,2.3-64,.09-3.74-1-7.51-1.39-11.27a13.93,13.93,0,0,1,.35-3.11c1.2.28,2.7.18,3.54.89,9.9,8.31,15.14,18.24,10.9,31.51-1.3,4.08-1.88,8.39-3.07,12.51-1,3.4-.57,6.3,2.5,8.2a6.06,6.06,0,0,0,4.57.79c13.8-5.09,26.36,3.38,26.49,18,.14,15.18-8.31,23.45-26.21,24.94q2.07,25.1,4.15,50.19l-.83.49c-.62-.89-1.65-1.7-1.82-2.66-2.43-14-5-28-7-42-1.18-8.41-.72-8.47-8.69-13.36-1.06,2.57-2,5.13-3.16,7.54-1.68,3.39-3.17,7-5.47,9.94-8.49,10.91-22.18,9.74-27.42-3.08a70.21,70.21,0,0,1-4.93-25c-.15-11.16,1.51-22.39,3.09-33.49.61-4.33,0-6.73-3.68-9.42-7.33-5.35-13.09-12-11-22.17,1.17-5.76,4-10.62,9.61-13.09C379.1,2,389.64,9.94,390.16,21.6A134.12,134.12,0,0,1,389.58,35.22Zm36.71,58.92c7.2-.24,12.2-3.22,15.2-9.17,2.47-4.89,1.17-13.48-3.26-16.91-2.05-1.58-5.74-1.45-8.66-1.31-1.14,0-3.08,2.2-3.13,3.45C426.15,78.09,426.29,86,426.29,94.14ZM378.77,36.53c0-6.29.32-12-.18-17.62-.17-1.88-2.34-4.88-3.83-5-2-.2-4.61,1.48-6.31,3.05a8.56,8.56,0,0,0-2.16,5.24C365.72,28.91,369.26,33.09,378.77,36.53ZM420,93c-.57-5.62-1.12-11-1.73-17C413,82.88,413.84,91.55,420,93Z" transform="translate(-4.9 -4.94)"/><path class="cls-1" d="M334.27,99.29c-.92,3-3.87,4.47-7.6,4.86-6.6.7-11.72-3.21-13.83-10.7-5.17,5.65-11,9.63-19,9.63-1.16,0-2.59,2.54-3.44,4.15-3.46,6.52-8,11.34-16.05,11.62-8.29.29-13.92-3.84-17.63-10.77-1.94-3.63-4-7.43-4.78-11.39-1.7-9.07-2.76-18.27-3.77-27.44-.39-3.51,1.88-4.84,4.54-2.86,6.54,4.83,13,9.72,19.25,15,1.4,1.18,1.57,3.82,2.3,5.79-2.28.43-4.82,1.71-6.77,1.11-2.86-.88-5.3-3.11-9.24-5.6,2.95,7.79,5.13,14.9,8.33,21.52a10.5,10.5,0,0,0,10.89,5.71c4.62-.55,7.7-3.56,9.24-8.11-8.72-9.42-11.58-21.14-12.24-33.29s-.36-24.44-.06-36.66c.09-3.34,1.35-6.8,2.69-9.95,2.86-6.77,9.11-10.4,15.34-9.37,5.91,1,10.09,5.74,10.77,13.22,1.64,18,2,36-3.51,53.62-1.19,3.78-2.16,7.63-3.24,11.44-.84,3,.33,4.37,3.37,4.57,6.38.42,14.09-6.87,13.54-13.15-.09-1.07-1.57-2.11-2.56-3-2.14-2-4.58-3.66-6.48-5.82-.71-.81-.86-3.12-.23-3.83a4.94,4.94,0,0,1,4-1c1.9.36,3.66,1.45,5.94,2.43,1.12-8.07,2.2-15.84,3.27-23.62a30.08,30.08,0,0,1,.34-3.45c.78-3,2.07-6,5.83-5.62s3.19,4,2.92,6.31c-1,8.34-2.2,16.67-3.78,24.92-.55,2.84-.42,4.35,2.57,5.14a104.84,104.84,0,0,1,14.45,4.79l-19.53,1.79c-1.64,6.15-1.93,12.56,2.92,17C325.17,100.09,330,99,334.27,99.29ZM291,87.33c4.6-18.57,4-37,2.53-55.37a32.51,32.51,0,0,0-2.47-9.49c-.58-1.4-2.56-3.18-3.82-3.11s-3.19,1.89-3.73,3.35a39.21,39.21,0,0,0-2.44,10c-1.59,16.93,2.71,33,7.39,49.06A40.2,40.2,0,0,0,291,87.33Z" transform="translate(-4.9 -4.94)"/><path class="cls-1" d="M525.53,83.06c3.53,1.2,6.54,2.11,9.46,3.26A12.39,12.39,0,0,1,539.67,89c1.09,1.22,2.24,3.5,1.77,4.68s-3,1.92-4.6,1.89a13.52,13.52,0,0,1-6.7-1.6c-5.82-3.61-10.5-.47-15.27,2.08-3.49,1.86-3,5.17-2.38,8.32,1.34,6.64,2.89,13.25,4.08,19.92.69,3.82.86,7.73,1.26,11.64-5.51-1.11-7.16-4.17-15.48-28.73-3.71,2.79-7.22,5.59-10.92,8.11-1.05.71-3.15,1.25-3.89.7-.89-.65-1.1-2.56-1.17-3.94-.33-6.93,4-11.27,9.34-14.25,5.88-3.3,7.59-8.16,7.61-14.53-3.64-2.89-10.94-1.14-12.08-9.16L505,75.84c5.13-6,10-12.06,15.19-17.72,1.54-1.67,4.16-2.35,6.28-3.49,1.06,2,3,3.92,3,5.89a85,85,0,0,1-1.34,14.12C527.66,77.36,526.5,80,525.53,83.06Z" transform="translate(-4.9 -4.94)"/><path class="cls-1" d="M52,101.2c-2.76,4.76-7.79,5.23-13.45,6.12,1,5.12,1.92,10.19,2.88,15.29-4.79,2.48-6,1.83-7.65-2.91a143.45,143.45,0,0,0-7.08-16.82c-1-2-3.55-3.32-5.26-4.83L7,110.54,5.38,109c3.25-5,6.51-10,9.93-15.27l-4-4.27C6.42,84.37,4.86,78,4.9,71.26c0-1.35,1.41-3.78,2.3-3.84,2.13-.14,4.8.22,6.42,1.46,4.49,3.39,8.56,7.34,13.16,11.41,3.25-1.79,5.14-8.83,11.92-7-.74,6-1.26,11.62-2.2,17.19-.65,3.85.13,6.42,4.24,7.46C44.38,98.91,48,100,52,101.2Z" transform="translate(-4.9 -4.94)"/><path class="cls-1" d="M355.2,83.67C351.69,82,348,80.31,344.39,78.4c-.57-.31-.82-1.72-.71-2.57.05-.44,1.35-1.2,1.83-1q7.08,2.35,14,5.06c.3.11.41,1.93.11,2.1A31.12,31.12,0,0,1,355.2,83.67Z" transform="translate(-4.9 -4.94)"/><path class="cls-1" d="M220.58,85.47c4-5.71,9.49-4.77,14.73-5.64C232.05,85.39,228.26,86.94,220.58,85.47Z" transform="translate(-4.9 -4.94)"/></svg>